<?xml version="1.0"?>
<svg xmlns="http://www.w3.org/2000/svg" height="512px" viewBox="0 0 256 256" width="512px" class="hovered-paths"><g><g fill="#a58bc9"><path d="m22.333 195.8a2.5 2.5 0 0 1 -2.5-2.5c0-73.392 59.709-133.1 133.1-133.1a2.5 2.5 0 0 1 0 5 128.245 128.245 0 0 0 -128.1 128.1 2.5 2.5 0 0 1 -2.5 2.5z" data-original="#A58BC9" class="active-path" style="fill:#000000" data-old_color="#A58BC9"/><path d="m233.667 145.935a2.5 2.5 0 0 1 -2.5-2.5 78.323 78.323 0 0 0 -78.234-78.235 2.5 2.5 0 0 1 0-5 83.329 83.329 0 0 1 83.234 83.235 2.5 2.5 0 0 1 -2.5 2.5z" data-original="#A58BC9" class="active-path" style="fill:#000000" data-old_color="#A58BC9"/><path d="m183.8 195.8a2.5 2.5 0 0 1 0-5 47.42 47.42 0 0 0 47.366-47.365 2.5 2.5 0 0 1 5 0 52.425 52.425 0 0 1 -52.366 52.365z" data-original="#A58BC9" class="active-path" style="fill:#000000" data-old_color="#A58BC9"/><path d="m183.8 195.8a33.406 33.406 0 0 1 -33.368-33.369 2.5 2.5 0 0 1 5 0 28.4 28.4 0 0 0 28.368 28.369 2.5 2.5 0 0 1 0 5z" data-original="#A58BC9" class="active-path" style="fill:#000000" data-old_color="#A58BC9"/><path d="m152.933 164.931a2.5 2.5 0 0 1 -2.5-2.5 21.52 21.52 0 0 1 21.5-21.5 2.5 2.5 0 1 1 0 5 16.514 16.514 0 0 0 -16.5 16.5 2.5 2.5 0 0 1 -2.5 2.5z" data-original="#A58BC9" class="active-path" style="fill:#000000" data-old_color="#A58BC9"/><path d="m183.8 157.807a2.5 2.5 0 0 1 -2.5-2.5 9.383 9.383 0 0 0 -9.373-9.372 2.5 2.5 0 0 1 0-5 14.389 14.389 0 0 1 14.373 14.372 2.5 2.5 0 0 1 -2.5 2.5z" data-original="#A58BC9" class="active-path" style="fill:#000000" data-old_color="#A58BC9"/></g><path d="m233.667 60.2h-211.334a2.5 2.5 0 0 0 -2.5 2.5v130.6a2.5 2.5 0 0 0 2.5 2.5h211.334a2.5 2.5 0 0 0 2.5-2.5v-130.6a2.5 2.5 0 0 0 -2.5-2.5zm-2.5 80.735h-75.734v-75.735h75.734zm-49.866 19h-6.872v-14h6.871zm-25.868-14h14v14h-14zm-130.6-80.735h125.6v125.6h-125.6zm130.6 99.731h25.867v25.869h-25.867zm75.734 25.869h-44.867v-44.865h44.866z" fill="#846f75" data-original="#846F75" class="hovered-path" data-old_color="#846f75" style="fill:#000000"/></g> </svg>
