<?xml version="1.0"?>
<svg xmlns="http://www.w3.org/2000/svg" height="512px" viewBox="0 0 256 256" width="512px"><g><path d="m144.75 171.228h-15.75a2.5 2.5 0 0 1 -2.5-2.5v-47.119a2.5 2.5 0 0 1 2.5-2.5h15.75a2.5 2.5 0 0 1 2.5 2.5v47.119a2.5 2.5 0 0 1 -2.5 2.5zm-13.25-5h10.75v-42.119h-10.75z" fill="#65c1d6" data-original="#65C1D6" class="active-path" style="fill:#000000" data-old_color="#65c1d6"/><path d="m169.707 171.228h-15.75a2.5 2.5 0 0 1 -2.5-2.5v-83.978a2.5 2.5 0 0 1 2.5-2.5h15.75a2.5 2.5 0 0 1 2.5 2.5v83.978a2.5 2.5 0 0 1 -2.5 2.5zm-13.25-5h10.75v-78.978h-10.75z" fill="#65c1d6" data-original="#65C1D6" class="active-path" style="fill:#000000" data-old_color="#65c1d6"/><path d="m194.664 171.228h-15.75a2.5 2.5 0 0 1 -2.5-2.5v-63.683a2.5 2.5 0 0 1 2.5-2.5h15.75a2.5 2.5 0 0 1 2.5 2.5v63.683a2.5 2.5 0 0 1 -2.5 2.5zm-13.25-5h10.75v-58.683h-10.75z" fill="#65c1d6" data-original="#65C1D6" class="active-path" style="fill:#000000" data-old_color="#65c1d6"/><g fill="#846f75"><path d="m88.937 110.593a3.76 3.76 0 0 0 -6.41 0l-11.787 19.207a3.76 3.76 0 0 0 3.931 5.657l4.624-.912v12.145a3.764 3.764 0 0 0 3.76 3.76h5.355a3.764 3.764 0 0 0 3.76-3.76v-12.144l4.623.912a3.761 3.761 0 0 0 3.933-5.656zm1.216 18.46a2.5 2.5 0 0 0 -2.983 2.453v13.944h-2.87v-13.944a2.5 2.5 0 0 0 -2.983-2.453l-4.831.952 9.251-15.075 9.251 15.075z" data-original="#846F75" class="" style="fill:#000000" data-old_color="#846F75"/><path d="m85.732 105.206a2.5 2.5 0 0 0 2.5-2.5v-9.7a2.5 2.5 0 0 0 -5 0v9.7a2.5 2.5 0 0 0 2.5 2.5z" data-original="#846F75" class="" style="fill:#000000" data-old_color="#846F75"/><path d="m108.165 112.938h-9.7a2.5 2.5 0 0 0 0 5h9.7a2.5 2.5 0 0 0 0-5z" data-original="#846F75" class="" style="fill:#000000" data-old_color="#846F75"/><path d="m75.5 115.438a2.5 2.5 0 0 0 -2.5-2.5h-9.7a2.5 2.5 0 0 0 0 5h9.7a2.5 2.5 0 0 0 2.5-2.5z" data-original="#846F75" class="" style="fill:#000000" data-old_color="#846F75"/><path d="m94.735 108.935a2.494 2.494 0 0 0 1.765-.735l6.859-6.859a2.5 2.5 0 0 0 -3.535-3.535l-6.859 6.859a2.5 2.5 0 0 0 1.767 4.268z" data-original="#846F75" class="" style="fill:#000000" data-old_color="#846F75"/><path d="m74.962 108.2a2.5 2.5 0 0 0 3.535-3.535l-6.859-6.859a2.5 2.5 0 1 0 -3.535 3.535z" data-original="#846F75" class="" style="fill:#000000" data-old_color="#846F75"/><path d="m35.947 171.228a2.5 2.5 0 0 0 2.5-2.5v-109.122a2.5 2.5 0 0 1 2.5-2.5h174.106a2.5 2.5 0 0 1 2.5 2.5v109.122a2.5 2.5 0 0 0 5 0v-109.122a7.509 7.509 0 0 0 -7.5-7.5h-174.106a7.509 7.509 0 0 0 -7.5 7.5v109.122a2.5 2.5 0 0 0 2.5 2.5z" data-original="#846F75" class="" style="fill:#000000" data-old_color="#846F75"/><path d="m51.368 69.728a2.5 2.5 0 0 0 -2.5 2.5v96.5a2.5 2.5 0 0 0 2.5 2.5h153.265a2.5 2.5 0 0 0 2.5-2.5v-96.5a2.5 2.5 0 0 0 -2.5-2.5zm2.5 5h63.3v91.5h-63.3zm148.265 91.5h-79.961v-91.5h79.961z" data-original="#846F75" class="" style="fill:#000000" data-old_color="#846F75"/><path d="m231.5 179.606h-207a7.508 7.508 0 0 0 -7.5 7.5v9.288a7.508 7.508 0 0 0 7.5 7.5h207a7.508 7.508 0 0 0 7.5-7.5v-9.288a7.508 7.508 0 0 0 -7.5-7.5zm2.5 16.788a2.5 2.5 0 0 1 -2.5 2.5h-207a2.5 2.5 0 0 1 -2.5-2.5v-9.288a2.5 2.5 0 0 1 2.5-2.5h207a2.5 2.5 0 0 1 2.5 2.5z" data-original="#846F75" class="" style="fill:#000000" data-old_color="#846F75"/></g><path d="m149.359 193.917h-42.719a2.5 2.5 0 0 1 0-5h42.719a2.5 2.5 0 0 1 0 5z" fill="#ebe7f2" data-original="#EBE7F2" class="" style="fill:#000000" data-old_color="#ebe7f2"/></g> </svg>
