<?xml version="1.0"?>
<svg xmlns="http://www.w3.org/2000/svg" height="512px" viewBox="0 0 256 256" width="512px" class=""><g><path d="m67.653 181.1a2.492 2.492 0 0 1 -1.734-.7 72.738 72.738 0 1 1 103.4-102.27 2.5 2.5 0 1 1 -3.638 3.429 67.115 67.115 0 0 0 -49.312-21.3 67.737 67.737 0 0 0 -46.982 116.541 2.5 2.5 0 0 1 -1.734 4.3z" fill="#ebe7f2" data-original="#EBE7F2" class="active-path" style="fill:#000000" data-old_color="#ebe7f2"/><g fill="#a58bc9"><path d="m186.605 137.913h-20a2.5 2.5 0 0 1 0-5h20a2.5 2.5 0 1 1 0 5z" data-original="#A58BC9" class="" style="fill:#000000" data-old_color="#A58BC9"/><path d="m236.062 137.913h-20a2.5 2.5 0 0 1 0-5h20a2.5 2.5 0 0 1 0 5z" data-original="#A58BC9" class="" style="fill:#000000" data-old_color="#A58BC9"/><path d="m152.926 209.527a2.5 2.5 0 0 1 -2.5-2.5v-40.927a16.269 16.269 0 0 0 -16.251-16.251h-34.767a16.269 16.269 0 0 0 -16.251 16.251v40.924a2.5 2.5 0 0 1 -5 0v-40.924a21.275 21.275 0 0 1 21.251-21.251h34.767a21.275 21.275 0 0 1 21.251 21.251v40.924a2.5 2.5 0 0 1 -2.5 2.503z" data-original="#A58BC9" class="" style="fill:#000000" data-old_color="#A58BC9"/><path d="m116.368 137.913a28.563 28.563 0 1 1 28.563-28.563 28.6 28.6 0 0 1 -28.563 28.563zm0-52.126a23.563 23.563 0 1 0 23.563 23.563 23.589 23.589 0 0 0 -23.563-23.563z" data-original="#A58BC9" class="" style="fill:#000000" data-old_color="#A58BC9"/></g><path d="m158.915 201.206a84.659 84.659 0 1 1 35.967-104.928 2.5 2.5 0 1 0 4.635-1.875 89.654 89.654 0 1 0 -38.086 111.123 2.5 2.5 0 1 0 -2.516-4.32z" fill="#846f75" data-original="#846F75" class="" data-old_color="#846f75" style="fill:#000000"/><path d="m236.062 110.167h-20a2.5 2.5 0 0 0 -2.5 2.5v62.272a12.229 12.229 0 0 1 -24.457 0v-62.272a2.5 2.5 0 0 0 -2.5-2.5h-20a2.5 2.5 0 0 0 -2.5 2.5v62.272a37.229 37.229 0 0 0 74.457 0v-62.272a2.5 2.5 0 0 0 -2.5-2.5zm-2.5 64.772a32.229 32.229 0 0 1 -64.457 0v-59.772h15v59.772a17.229 17.229 0 0 0 34.457 0v-59.772h15z" fill="#846f75" data-original="#846F75" class="" data-old_color="#846f75" style="fill:#000000"/><path d="m174.854 106.875a2.5 2.5 0 0 1 -2.06-3.914l3.858-5.628h-4.839a2.5 2.5 0 0 1 -2.06-3.915l6.584-9.584a2.5 2.5 0 1 1 4.121 2.832l-3.894 5.667h4.836a2.5 2.5 0 0 1 2.062 3.914l-6.542 9.542a2.5 2.5 0 0 1 -2.066 1.086z" fill="#a58bc9" data-original="#A58BC9" class="" style="fill:#000000" data-old_color="#a58bc9"/><path d="m224.31 106.875a2.5 2.5 0 0 1 -2.06-3.914l3.858-5.628h-4.838a2.5 2.5 0 0 1 -2.061-3.915l6.584-9.584a2.5 2.5 0 1 1 4.121 2.832l-3.893 5.667h4.833a2.5 2.5 0 0 1 2.061 3.914l-6.542 9.542a2.5 2.5 0 0 1 -2.063 1.086z" fill="#a58bc9" data-original="#A58BC9" class="" style="fill:#000000" data-old_color="#a58bc9"/></g> </svg>
