<?xml version="1.0"?>
<svg xmlns="http://www.w3.org/2000/svg" id="Capa_1" enable-background="new 0 0 512.014 512.014" height="512px" viewBox="0 0 512.014 512.014" width="512px"><g><path d="m437.347 74.667c-12.447-12.447-25.954-23.445-40.308-32.934l-18.898 32.732c23.408 15.799 43.61 36.001 59.408 59.408l32.732-18.898c-9.489-14.353-20.487-27.861-32.934-40.308z" data-original="#000000" class="active-path" data-old_color="#000000" fill="#FFFFFF"/><path d="m352.179 59.432 18.909-32.751c-30.906-15.548-64.824-24.661-100.081-26.681v37.66c28.952 1.969 56.374 9.591 81.172 21.772z" data-original="#000000" class="active-path" data-old_color="#000000" fill="#FFFFFF"/><path d="m159.835 59.432c24.798-12.182 52.22-19.803 81.172-21.772v-37.66c-35.257 2.02-69.175 11.133-100.081 26.681z" data-original="#000000" class="active-path" data-old_color="#000000" fill="#FFFFFF"/><path d="m352.179 452.582c-24.798 12.182-52.22 19.803-81.172 21.772v37.66c35.257-2.02 69.175-11.133 100.081-26.681z" data-original="#000000" class="active-path" data-old_color="#000000" fill="#FFFFFF"/><path d="m74.465 133.873c15.799-23.408 36.001-43.61 59.409-59.408l-18.898-32.732c-14.354 9.49-27.861 20.488-40.308 32.934s-23.445 25.954-32.935 40.308z" data-original="#000000" class="active-path" data-old_color="#000000" fill="#FFFFFF"/><path d="m256.007 67.136c-104.144 0-188.872 84.728-188.872 188.871s84.728 188.871 188.872 188.871 188.871-84.728 188.871-188.871-84.727-188.871-188.871-188.871zm-6.65 173.871h13.3c33.735 0 61.181 27.445 61.181 61.181 0 30.902-23.034 56.51-52.831 60.596v36.312h-30v-36.312c-29.797-4.087-52.831-29.694-52.831-60.596h30c0 17.193 13.988 31.181 31.181 31.181h13.3c17.193 0 31.181-13.987 31.181-31.181s-13.987-31.181-31.181-31.181h-13.3c-33.735 0-61.181-27.445-61.181-61.181 0-30.902 23.034-56.51 52.831-60.596v-36.312h30v36.312c29.797 4.086 52.831 29.694 52.831 60.596h-30c0-17.193-13.987-31.181-31.181-31.181h-13.3c-17.193 0-31.181 13.987-31.181 31.181s13.988 31.181 31.181 31.181z" data-original="#000000" class="active-path" data-old_color="#000000" fill="#FFFFFF"/><path d="m114.975 470.281 18.898-32.732c-23.408-15.799-43.61-36-59.409-59.408l-32.732 18.898c9.49 14.354 20.488 27.861 32.935 40.308s25.954 23.445 40.308 32.934z" data-original="#000000" class="active-path" data-old_color="#000000" fill="#FFFFFF"/><path d="m59.432 159.835-32.751-18.909c-15.548 30.907-24.661 64.824-26.681 100.081h37.659c1.97-28.952 9.591-56.374 21.773-81.172z" data-original="#000000" class="active-path" data-old_color="#000000" fill="#FFFFFF"/><path d="m452.582 159.835c12.182 24.798 19.803 52.22 21.772 81.172h37.66c-2.02-35.257-11.133-69.175-26.681-100.081z" data-original="#000000" class="active-path" data-old_color="#000000" fill="#FFFFFF"/><path d="m437.549 378.141c-15.799 23.408-36.001 43.61-59.408 59.408l18.898 32.732c14.354-9.49 27.861-20.488 40.308-32.934s23.445-25.954 32.934-40.308z" data-original="#000000" class="active-path" data-old_color="#000000" fill="#FFFFFF"/><path d="m452.582 352.179 32.751 18.909c15.548-30.906 24.661-64.824 26.681-100.081h-37.66c-1.969 28.952-9.591 56.374-21.772 81.172z" data-original="#000000" class="active-path" data-old_color="#000000" fill="#FFFFFF"/><path d="m159.835 452.582-18.909 32.751c30.906 15.548 64.824 24.661 100.081 26.681v-37.66c-28.952-1.969-56.374-9.59-81.172-21.772z" data-original="#000000" class="active-path" data-old_color="#000000" fill="#FFFFFF"/><path d="m59.432 352.179c-12.182-24.798-19.803-52.22-21.772-81.172h-37.66c2.02 35.257 11.133 69.175 26.681 100.081z" data-original="#000000" class="active-path" data-old_color="#000000" fill="#FFFFFF"/></g> </svg>
