<?xml version="1.0"?>
<svg xmlns="http://www.w3.org/2000/svg" id="Capa_1" enable-background="new 0 0 512 512" height="512px" viewBox="0 0 512 512" width="512px"><g><g><path d="m0 372v85c0 30.327 24.673 55 55 55h402c30.327 0 55-24.673 55-55v-85zm436 85h-125v5c0 8.284-6.716 15-15 15s-15-6.716-15-15v-5h-205c-8.284 0-15-6.716-15-15s6.716-15 15-15h205v-5c0-8.284 6.716-15 15-15s15 6.716 15 15v5h125c8.284 0 15 6.716 15 15s-6.716 15-15 15z" data-original="#000000" class="active-path" data-old_color="#000000" fill="#459CD1"/><g><path d="m139.16 140 116.84 34.365 116.84-34.365-116.84-34.365z" data-original="#000000" class="active-path" data-old_color="#000000" fill="#459CD1"/><path d="m256 205c-1.425 0-2.851-.203-4.232-.609l-80.768-23.755v54.364h170v-54.365l-80.768 23.755c-1.381.407-2.806.61-4.232.61z" data-original="#000000" class="active-path" data-old_color="#000000" fill="#459CD1"/><path d="m457 0h-402c-30.327 0-55 24.673-55 55v287h512v-287c0-30.327-24.673-55-55-55zm-16 230c0 8.284-6.716 15-15 15s-15-6.716-15-15v-69.953l-40 11.765v78.188c0 8.284-6.716 15-15 15h-200c-8.284 0-15-6.716-15-15v-78.188l-59.232-17.421c-6.384-1.878-10.768-7.737-10.768-14.391s4.384-12.513 10.768-14.391l170-50c2.763-.813 5.701-.813 8.465 0l170 50c6.383 1.878 10.767 7.737 10.767 14.391z" data-original="#000000" class="active-path" data-old_color="#000000" fill="#459CD1"/></g></g></g> </svg>
